<svg width="500" height="500" viewBox="0 0 500 500" fill="none" xmlns="http://www.w3.org/2000/svg">
<path d="M430.713 195.613C430.713 195.613 393.886 125.914 316.984 98.8953C240.083 71.8768 204.547 95.4743 165.148 121.003C134.103 141.099 109.854 170.27 84.4529 195.973C61.1811 219.571 27.088 237.863 16.3248 270.524C2.72247 311.832 33.5575 356.444 70.1058 380.472C121.164 413.96 170.663 393.469 223.979 385.603H224.281C232.022 384.416 239.838 383.794 247.669 383.742C309.595 383.87 354.033 427.597 399.145 382.578C444.257 337.559 451.46 249.859 430.713 195.613Z" fill="#004FFF"/>
<path opacity="0.75" d="M430.713 195.613C430.713 195.613 393.886 125.914 316.984 98.8953C240.083 71.8768 204.547 95.4743 165.148 121.003C134.103 141.099 109.854 170.27 84.4529 195.973C61.1811 219.571 27.088 237.863 16.3248 270.524C2.72247 311.832 33.5575 356.444 70.1058 380.472C121.164 413.96 170.663 393.469 223.979 385.603H224.281C232.022 384.416 239.838 383.794 247.669 383.742C309.595 383.87 354.033 427.597 399.145 382.578C444.257 337.559 451.46 249.859 430.713 195.613Z" fill="white"/>
<path d="M405.778 183.069C402.066 181.044 400.379 182.732 399.018 181.044C397.656 179.357 402.741 174.959 392.606 170.572C392.606 170.572 391.931 161.112 378.073 160.775C364.215 160.437 367.985 170.188 364.226 172.597C360.468 175.005 359.49 171.247 355.779 173.609C352.067 175.971 353.742 180.707 350.705 181.382C347.668 182.057 343.607 178.345 339.896 180.707C336.184 183.069 336.172 185.094 334.485 185.094C332.798 185.094 329.423 183.744 327.387 185.094C325.351 186.443 323 188.142 323 188.142H408.478C408.478 188.142 409.501 185.047 405.778 183.069Z" fill="white" stroke="#777B7D" stroke-miterlimit="10"/>
<path d="M195.308 212.158C193.621 211.239 192.853 212.006 192.248 211.239C191.643 210.471 193.935 208.481 189.327 206.491C189.327 206.491 189.025 202.186 182.73 202.035C176.435 201.883 178.134 206.328 176.446 207.41C174.759 208.492 174.305 206.794 172.618 207.864C170.931 208.935 171.687 211.087 170.291 211.355C168.895 211.622 167.068 209.982 165.381 211.052C163.694 212.123 163.694 213.042 162.926 213.042C162.158 213.042 160.598 212.437 159.702 213.042C158.806 213.647 157.713 214.427 157.713 214.427H196.518C196.618 213.966 196.551 213.486 196.329 213.07C196.107 212.655 195.746 212.332 195.308 212.158V212.158Z" fill="white" stroke="#777B7D" stroke-miterlimit="10"/>
<path d="M226.748 114.417C224.421 113.16 223.374 114.207 222.524 113.16C221.675 112.113 224.852 109.355 218.522 106.621C218.522 106.621 218.103 100.71 209.457 100.5C200.812 100.291 203.127 106.411 200.8 107.878C198.473 109.344 197.856 107.04 195.529 108.517C193.202 109.995 194.272 112.939 192.364 113.37C190.456 113.8 187.943 111.473 185.627 112.939C183.311 114.405 183.3 115.685 182.253 115.685C181.205 115.685 179.088 114.836 177.819 115.685C176.551 116.535 175.073 117.582 175.073 117.582H228.435C228.583 116.94 228.493 116.266 228.183 115.684C227.873 115.103 227.364 114.653 226.748 114.417Z" fill="white" stroke="#777B7D" stroke-miterlimit="10"/>
<path d="M76.8094 230.427H67.3137V239.992H76.8094V230.427Z" stroke="#777B7D" stroke-miterlimit="10"/>
<path d="M60.9143 236.209H57.0625V239.98H60.9143V236.209Z" stroke="#777B7D" stroke-miterlimit="10"/>
<path d="M446.946 290.817H410.967V214.927H413.376V207.062H329.097V214.927H332.018V327.784H309.91V85.6528H234.102V268.767H206.397V248.497H213.646V239.921H153.047V117.07H156.968V110.647H83.3943V117.07H88.677V240.131H30.5325V328.133H0" stroke="#777B7D" stroke-miterlimit="10"/>
<path d="M312.924 83H230.728V85.6297H312.924V83Z" stroke="#777B7D" stroke-miterlimit="10"/>
<path d="M104.514 124.213H95.2512V134.128H104.514V124.213Z" stroke="#777B7D" stroke-miterlimit="10"/>
<path d="M118.093 124.213H108.83V134.128H118.093V124.213Z" stroke="#777B7D" stroke-miterlimit="10"/>
<path d="M131.672 124.213H122.409V134.128H131.672V124.213Z" stroke="#777B7D" stroke-miterlimit="10"/>
<path d="M145.263 124.213H136V134.128H145.263V124.213Z" stroke="#777B7D" stroke-miterlimit="10"/>
<path d="M104.514 139.935H95.2512V149.85H104.514V139.935Z" stroke="#777B7D" stroke-miterlimit="10"/>
<path d="M118.093 139.935H108.83V149.85H118.093V139.935Z" stroke="#777B7D" stroke-miterlimit="10"/>
<path d="M131.672 139.935H122.409V149.85H131.672V139.935Z" stroke="#777B7D" stroke-miterlimit="10"/>
<path d="M145.263 139.935H136V149.85H145.263V139.935Z" stroke="#777B7D" stroke-miterlimit="10"/>
<path d="M104.514 155.644H95.2512V165.558H104.514V155.644Z" stroke="#777B7D" stroke-miterlimit="10"/>
<path d="M118.093 155.644H108.83V165.558H118.093V155.644Z" stroke="#777B7D" stroke-miterlimit="10"/>
<path d="M131.672 155.644H122.409V165.558H131.672V155.644Z" stroke="#777B7D" stroke-miterlimit="10"/>
<path d="M145.263 155.644H136V165.558H145.263V155.644Z" stroke="#777B7D" stroke-miterlimit="10"/>
<path d="M104.514 171.351H95.2512V181.266H104.514V171.351Z" stroke="#777B7D" stroke-miterlimit="10"/>
<path d="M118.093 171.351H108.83V181.266H118.093V171.351Z" stroke="#777B7D" stroke-miterlimit="10"/>
<path d="M131.672 171.351H122.409V181.266H131.672V171.351Z" stroke="#777B7D" stroke-miterlimit="10"/>
<path d="M145.263 171.351H136V181.266H145.263V171.351Z" stroke="#777B7D" stroke-miterlimit="10"/>
<path d="M104.514 187.071H95.2512V196.986H104.514V187.071Z" stroke="#777B7D" stroke-miterlimit="10"/>
<path d="M118.093 187.071H108.83V196.986H118.093V187.071Z" stroke="#777B7D" stroke-miterlimit="10"/>
<path d="M131.672 187.071H122.409V196.986H131.672V187.071Z" stroke="#777B7D" stroke-miterlimit="10"/>
<path d="M145.263 187.071H136V196.986H145.263V187.071Z" stroke="#777B7D" stroke-miterlimit="10"/>
<path d="M104.514 202.779H95.2512V212.693H104.514V202.779Z" stroke="#777B7D" stroke-miterlimit="10"/>
<path d="M118.093 202.779H108.83V212.693H118.093V202.779Z" stroke="#777B7D" stroke-miterlimit="10"/>
<path d="M131.672 202.779H122.409V212.693H131.672V202.779Z" stroke="#777B7D" stroke-miterlimit="10"/>
<path d="M145.263 202.779H136V212.693H145.263V202.779Z" stroke="#777B7D" stroke-miterlimit="10"/>
<path d="M104.514 218.5H95.2512V228.415H104.514V218.5Z" stroke="#777B7D" stroke-miterlimit="10"/>
<path d="M118.093 218.5H108.83V228.415H118.093V218.5Z" stroke="#777B7D" stroke-miterlimit="10"/>
<path d="M131.672 218.5H122.409V228.415H131.672V218.5Z" stroke="#777B7D" stroke-miterlimit="10"/>
<path d="M145.263 218.5H136V228.415H145.263V218.5Z" stroke="#777B7D" stroke-miterlimit="10"/>
<path d="M104.514 234.209H95.2512V244.124H104.514V234.209Z" stroke="#777B7D" stroke-miterlimit="10"/>
<path d="M118.093 234.209H108.83V244.124H118.093V234.209Z" stroke="#777B7D" stroke-miterlimit="10"/>
<path d="M131.672 234.209H122.409V244.124H131.672V234.209Z" stroke="#777B7D" stroke-miterlimit="10"/>
<path d="M145.263 234.209H136V244.124H145.263V234.209Z" stroke="#777B7D" stroke-miterlimit="10"/>
<path d="M104.514 248.578H95.2512V258.492H104.514V248.578Z" stroke="#777B7D" stroke-miterlimit="10"/>
<path d="M118.093 248.578H108.83V258.492H118.093V248.578Z" stroke="#777B7D" stroke-miterlimit="10"/>
<path d="M131.672 248.578H122.409V258.492H131.672V248.578Z" stroke="#777B7D" stroke-miterlimit="10"/>
<path d="M145.263 248.578H136V258.492H145.263V248.578Z" stroke="#777B7D" stroke-miterlimit="10"/>
<path d="M104.514 264.298H95.2512V274.213H104.514V264.298Z" stroke="#777B7D" stroke-miterlimit="10"/>
<path d="M118.093 264.298H108.83V274.213H118.093V264.298Z" stroke="#777B7D" stroke-miterlimit="10"/>
<path d="M131.672 264.298H122.409V274.213H131.672V264.298Z" stroke="#777B7D" stroke-miterlimit="10"/>
<path d="M145.263 264.298H136V274.213H145.263V264.298Z" stroke="#777B7D" stroke-miterlimit="10"/>
<path d="M104.514 280.007H95.2512V289.921H104.514V280.007Z" stroke="#777B7D" stroke-miterlimit="10"/>
<path d="M118.093 280.007H108.83V289.921H118.093V280.007Z" stroke="#777B7D" stroke-miterlimit="10"/>
<path d="M131.672 280.007H122.409V289.921H131.672V280.007Z" stroke="#777B7D" stroke-miterlimit="10"/>
<path d="M145.263 280.007H136V289.921H145.263V280.007Z" stroke="#777B7D" stroke-miterlimit="10"/>
<path d="M104.514 295.715H95.2512V305.63H104.514V295.715Z" stroke="#777B7D" stroke-miterlimit="10"/>
<path d="M118.093 295.715H108.83V305.63H118.093V295.715Z" stroke="#777B7D" stroke-miterlimit="10"/>
<path d="M131.672 295.715H122.409V305.63H131.672V295.715Z" stroke="#777B7D" stroke-miterlimit="10"/>
<path d="M145.263 295.715H136V305.63H145.263V295.715Z" stroke="#777B7D" stroke-miterlimit="10"/>
<path d="M104.514 311.435H95.2512V321.35H104.514V311.435Z" stroke="#777B7D" stroke-miterlimit="10"/>
<path d="M118.093 311.435H108.83V321.35H118.093V311.435Z" stroke="#777B7D" stroke-miterlimit="10"/>
<path d="M131.672 311.435H122.409V321.35H131.672V311.435Z" stroke="#777B7D" stroke-miterlimit="10"/>
<path d="M145.263 311.435H136V321.35H145.263V311.435Z" stroke="#777B7D" stroke-miterlimit="10"/>
<path d="M104.514 327.144H95.2512V337.058H104.514V327.144Z" stroke="#777B7D" stroke-miterlimit="10"/>
<path d="M118.093 327.144H108.83V337.058H118.093V327.144Z" stroke="#777B7D" stroke-miterlimit="10"/>
<path d="M131.672 327.144H122.409V337.058H131.672V327.144Z" stroke="#777B7D" stroke-miterlimit="10"/>
<path d="M145.263 327.144H136V337.058H145.263V327.144Z" stroke="#777B7D" stroke-miterlimit="10"/>
<path d="M104.514 342.864H95.2512V352.778H104.514V342.864Z" stroke="#777B7D" stroke-miterlimit="10"/>
<path d="M118.093 342.864H108.83V352.778H118.093V342.864Z" stroke="#777B7D" stroke-miterlimit="10"/>
<path d="M131.672 342.864H122.409V352.778H131.672V342.864Z" stroke="#777B7D" stroke-miterlimit="10"/>
<path d="M145.263 342.864H136V352.778H145.263V342.864Z" stroke="#777B7D" stroke-miterlimit="10"/>
<path d="M104.514 358.572H95.2512V368.487H104.514V358.572Z" stroke="#777B7D" stroke-miterlimit="10"/>
<path d="M118.093 358.572H108.83V368.487H118.093V358.572Z" stroke="#777B7D" stroke-miterlimit="10"/>
<path d="M131.672 358.572H122.409V368.487H131.672V358.572Z" stroke="#777B7D" stroke-miterlimit="10"/>
<path d="M145.263 358.572H136V368.487H145.263V358.572Z" stroke="#777B7D" stroke-miterlimit="10"/>
<path d="M157.562 248.578H148.299V258.492H157.562V248.578Z" stroke="#777B7D" stroke-miterlimit="10"/>
<path d="M171.141 248.578H161.878V258.492H171.141V248.578Z" stroke="#777B7D" stroke-miterlimit="10"/>
<path d="M184.72 248.578H175.457V258.492H184.72V248.578Z" stroke="#777B7D" stroke-miterlimit="10"/>
<path d="M198.299 248.578H189.036V258.492H198.299V248.578Z" stroke="#777B7D" stroke-miterlimit="10"/>
<path d="M157.562 264.298H148.299V274.213H157.562V264.298Z" stroke="#777B7D" stroke-miterlimit="10"/>
<path d="M171.141 264.298H161.878V274.213H171.141V264.298Z" stroke="#777B7D" stroke-miterlimit="10"/>
<path d="M184.72 264.298H175.457V274.213H184.72V264.298Z" stroke="#777B7D" stroke-miterlimit="10"/>
<path d="M198.299 264.298H189.036V274.213H198.299V264.298Z" stroke="#777B7D" stroke-miterlimit="10"/>
<path d="M157.562 280.007H148.299V289.921H157.562V280.007Z" stroke="#777B7D" stroke-miterlimit="10"/>
<path d="M171.141 280.007H161.878V289.921H171.141V280.007Z" stroke="#777B7D" stroke-miterlimit="10"/>
<path d="M184.72 280.007H175.457V289.921H184.72V280.007Z" stroke="#777B7D" stroke-miterlimit="10"/>
<path d="M198.299 280.007H189.036V289.921H198.299V280.007Z" stroke="#777B7D" stroke-miterlimit="10"/>
<path d="M157.562 295.715H148.299V305.63H157.562V295.715Z" stroke="#777B7D" stroke-miterlimit="10"/>
<path d="M171.141 295.715H161.878V305.63H171.141V295.715Z" stroke="#777B7D" stroke-miterlimit="10"/>
<path d="M184.72 295.715H175.457V305.63H184.72V295.715Z" stroke="#777B7D" stroke-miterlimit="10"/>
<path d="M198.299 295.715H189.036V305.63H198.299V295.715Z" stroke="#777B7D" stroke-miterlimit="10"/>
<path d="M157.562 311.435H148.299V321.35H157.562V311.435Z" stroke="#777B7D" stroke-miterlimit="10"/>
<path d="M171.141 311.435H161.878V321.35H171.141V311.435Z" stroke="#777B7D" stroke-miterlimit="10"/>
<path d="M184.72 311.435H175.457V321.35H184.72V311.435Z" stroke="#777B7D" stroke-miterlimit="10"/>
<path d="M198.299 311.435H189.036V321.35H198.299V311.435Z" stroke="#777B7D" stroke-miterlimit="10"/>
<path d="M157.562 327.144H148.299V337.058H157.562V327.144Z" stroke="#777B7D" stroke-miterlimit="10"/>
<path d="M171.141 327.144H161.878V337.058H171.141V327.144Z" stroke="#777B7D" stroke-miterlimit="10"/>
<path d="M184.72 327.144H175.457V337.058H184.72V327.144Z" stroke="#777B7D" stroke-miterlimit="10"/>
<path d="M198.299 327.144H189.036V337.058H198.299V327.144Z" stroke="#777B7D" stroke-miterlimit="10"/>
<path d="M157.562 342.864H148.299V352.778H157.562V342.864Z" stroke="#777B7D" stroke-miterlimit="10"/>
<path d="M171.141 342.864H161.878V352.778H171.141V342.864Z" stroke="#777B7D" stroke-miterlimit="10"/>
<path d="M184.72 342.864H175.457V352.778H184.72V342.864Z" stroke="#777B7D" stroke-miterlimit="10"/>
<path d="M198.299 342.864H189.036V352.778H198.299V342.864Z" stroke="#777B7D" stroke-miterlimit="10"/>
<path d="M157.562 358.572H148.299V368.487H157.562V358.572Z" stroke="#777B7D" stroke-miterlimit="10"/>
<path d="M171.141 358.572H161.878V368.487H171.141V358.572Z" stroke="#777B7D" stroke-miterlimit="10"/>
<path d="M184.72 358.572H175.457V368.487H184.72V358.572Z" stroke="#777B7D" stroke-miterlimit="10"/>
<path d="M198.299 358.572H189.036V368.487H198.299V358.572Z" stroke="#777B7D" stroke-miterlimit="10"/>
<path d="M50.7329 248.578H41.47V258.492H50.7329V248.578Z" stroke="#777B7D" stroke-miterlimit="10"/>
<path d="M64.3123 248.578H55.0493V258.492H64.3123V248.578Z" stroke="#777B7D" stroke-miterlimit="10"/>
<path d="M77.8914 248.578H68.6284V258.492H77.8914V248.578Z" stroke="#777B7D" stroke-miterlimit="10"/>
<path d="M91.4702 248.578H82.2073V258.492H91.4702V248.578Z" stroke="#777B7D" stroke-miterlimit="10"/>
<path d="M50.7329 264.298H41.47V274.213H50.7329V264.298Z" stroke="#777B7D" stroke-miterlimit="10"/>
<path d="M64.3123 264.298H55.0493V274.213H64.3123V264.298Z" stroke="#777B7D" stroke-miterlimit="10"/>
<path d="M77.8914 264.298H68.6284V274.213H77.8914V264.298Z" stroke="#777B7D" stroke-miterlimit="10"/>
<path d="M91.4702 264.298H82.2073V274.213H91.4702V264.298Z" stroke="#777B7D" stroke-miterlimit="10"/>
<path d="M50.7329 280.007H41.47V289.921H50.7329V280.007Z" stroke="#777B7D" stroke-miterlimit="10"/>
<path d="M64.3123 280.007H55.0493V289.921H64.3123V280.007Z" stroke="#777B7D" stroke-miterlimit="10"/>
<path d="M77.8914 280.007H68.6284V289.921H77.8914V280.007Z" stroke="#777B7D" stroke-miterlimit="10"/>
<path d="M91.4702 280.007H82.2073V289.921H91.4702V280.007Z" stroke="#777B7D" stroke-miterlimit="10"/>
<path d="M50.7329 295.715H41.47V305.63H50.7329V295.715Z" stroke="#777B7D" stroke-miterlimit="10"/>
<path d="M64.3123 295.715H55.0493V305.63H64.3123V295.715Z" stroke="#777B7D" stroke-miterlimit="10"/>
<path d="M77.8914 295.715H68.6284V305.63H77.8914V295.715Z" stroke="#777B7D" stroke-miterlimit="10"/>
<path d="M91.4702 295.715H82.2073V305.63H91.4702V295.715Z" stroke="#777B7D" stroke-miterlimit="10"/>
<path d="M50.7329 311.435H41.47V321.35H50.7329V311.435Z" stroke="#777B7D" stroke-miterlimit="10"/>
<path d="M64.3123 311.435H55.0493V321.35H64.3123V311.435Z" stroke="#777B7D" stroke-miterlimit="10"/>
<path d="M77.8914 311.435H68.6284V321.35H77.8914V311.435Z" stroke="#777B7D" stroke-miterlimit="10"/>
<path d="M91.4702 311.435H82.2073V321.35H91.4702V311.435Z" stroke="#777B7D" stroke-miterlimit="10"/>
<path d="M50.7329 327.144H41.47V337.058H50.7329V327.144Z" stroke="#777B7D" stroke-miterlimit="10"/>
<path d="M64.3123 327.144H55.0493V337.058H64.3123V327.144Z" stroke="#777B7D" stroke-miterlimit="10"/>
<path d="M77.8914 327.144H68.6284V337.058H77.8914V327.144Z" stroke="#777B7D" stroke-miterlimit="10"/>
<path d="M91.4702 327.144H82.2073V337.058H91.4702V327.144Z" stroke="#777B7D" stroke-miterlimit="10"/>
<path d="M50.7329 342.864H41.47V352.778H50.7329V342.864Z" stroke="#777B7D" stroke-miterlimit="10"/>
<path d="M64.3123 342.864H55.0493V352.778H64.3123V342.864Z" stroke="#777B7D" stroke-miterlimit="10"/>
<path d="M77.8914 342.864H68.6284V352.778H77.8914V342.864Z" stroke="#777B7D" stroke-miterlimit="10"/>
<path d="M91.4702 342.864H82.2073V352.778H91.4702V342.864Z" stroke="#777B7D" stroke-miterlimit="10"/>
<path d="M50.7329 358.572H41.47V368.487H50.7329V358.572Z" stroke="#777B7D" stroke-miterlimit="10"/>
<path d="M64.3123 358.572H55.0493V368.487H64.3123V358.572Z" stroke="#777B7D" stroke-miterlimit="10"/>
<path d="M77.8914 358.572H68.6284V368.487H77.8914V358.572Z" stroke="#777B7D" stroke-miterlimit="10"/>
<path d="M91.4702 358.572H82.2073V368.487H91.4702V358.572Z" stroke="#777B7D" stroke-miterlimit="10"/>
<path d="M354.069 217.778H344.806V227.693H354.069V217.778Z" stroke="#777B7D" stroke-miterlimit="10"/>
<path d="M367.648 217.778H358.385V227.693H367.648V217.778Z" stroke="#777B7D" stroke-miterlimit="10"/>
<path d="M381.227 217.778H371.964V227.693H381.227V217.778Z" stroke="#777B7D" stroke-miterlimit="10"/>
<path d="M394.806 217.778H385.543V227.693H394.806V217.778Z" stroke="#777B7D" stroke-miterlimit="10"/>
<path d="M354.069 233.498H344.806V243.413H354.069V233.498Z" stroke="#777B7D" stroke-miterlimit="10"/>
<path d="M367.648 233.498H358.385V243.413H367.648V233.498Z" stroke="#777B7D" stroke-miterlimit="10"/>
<path d="M381.227 233.498H371.964V243.413H381.227V233.498Z" stroke="#777B7D" stroke-miterlimit="10"/>
<path d="M394.806 233.498H385.543V243.413H394.806V233.498Z" stroke="#777B7D" stroke-miterlimit="10"/>
<path d="M354.069 249.207H344.806V259.122H354.069V249.207Z" stroke="#777B7D" stroke-miterlimit="10"/>
<path d="M367.648 249.207H358.385V259.122H367.648V249.207Z" stroke="#777B7D" stroke-miterlimit="10"/>
<path d="M381.227 249.207H371.964V259.122H381.227V249.207Z" stroke="#777B7D" stroke-miterlimit="10"/>
<path d="M394.806 249.207H385.543V259.122H394.806V249.207Z" stroke="#777B7D" stroke-miterlimit="10"/>
<path d="M354.069 264.916H344.806V274.83H354.069V264.916Z" stroke="#777B7D" stroke-miterlimit="10"/>
<path d="M367.648 264.916H358.385V274.83H367.648V264.916Z" stroke="#777B7D" stroke-miterlimit="10"/>
<path d="M381.227 264.916H371.964V274.83H381.227V264.916Z" stroke="#777B7D" stroke-miterlimit="10"/>
<path d="M394.806 264.916H385.543V274.83H394.806V264.916Z" stroke="#777B7D" stroke-miterlimit="10"/>
<path d="M354.069 280.635H344.806V290.55H354.069V280.635Z" stroke="#777B7D" stroke-miterlimit="10"/>
<path d="M367.648 280.635H358.385V290.55H367.648V280.635Z" stroke="#777B7D" stroke-miterlimit="10"/>
<path d="M381.227 280.635H371.964V290.55H381.227V280.635Z" stroke="#777B7D" stroke-miterlimit="10"/>
<path d="M394.806 280.635H385.543V290.55H394.806V280.635Z" stroke="#777B7D" stroke-miterlimit="10"/>
<path d="M354.069 296.344H344.806V306.258H354.069V296.344Z" stroke="#777B7D" stroke-miterlimit="10"/>
<path d="M367.648 296.344H358.385V306.258H367.648V296.344Z" stroke="#777B7D" stroke-miterlimit="10"/>
<path d="M381.227 296.344H371.964V306.258H381.227V296.344Z" stroke="#777B7D" stroke-miterlimit="10"/>
<path d="M394.806 296.344H385.543V306.258H394.806V296.344Z" stroke="#777B7D" stroke-miterlimit="10"/>
<path d="M354.069 312.063H344.806V321.978H354.069V312.063Z" stroke="#777B7D" stroke-miterlimit="10"/>
<path d="M367.648 312.063H358.385V321.978H367.648V312.063Z" stroke="#777B7D" stroke-miterlimit="10"/>
<path d="M381.227 312.063H371.964V321.978H381.227V312.063Z" stroke="#777B7D" stroke-miterlimit="10"/>
<path d="M394.806 312.063H385.543V321.978H394.806V312.063Z" stroke="#777B7D" stroke-miterlimit="10"/>
<path d="M354.069 327.772H344.806V337.687H354.069V327.772Z" stroke="#777B7D" stroke-miterlimit="10"/>
<path d="M367.648 327.772H358.385V337.687H367.648V327.772Z" stroke="#777B7D" stroke-miterlimit="10"/>
<path d="M381.227 327.772H371.964V337.687H381.227V327.772Z" stroke="#777B7D" stroke-miterlimit="10"/>
<path d="M394.806 327.772H385.543V337.687H394.806V327.772Z" stroke="#777B7D" stroke-miterlimit="10"/>
<path d="M241.247 91.3662V378.481" stroke="#777B7D" stroke-miterlimit="10"/>
<path d="M250.427 91.3662V378.481" stroke="#777B7D" stroke-miterlimit="10"/>
<path d="M259.608 91.3662V378.481" stroke="#777B7D" stroke-miterlimit="10"/>
<path d="M268.789 91.3662V378.481" stroke="#777B7D" stroke-miterlimit="10"/>
<path d="M277.981 91.3662V378.481" stroke="#777B7D" stroke-miterlimit="10"/>
<path d="M287.162 91.3662V378.481" stroke="#777B7D" stroke-miterlimit="10"/>
<path d="M296.342 91.3662V378.481" stroke="#777B7D" stroke-miterlimit="10"/>
<path d="M305.523 91.3662V378.481" stroke="#777B7D" stroke-miterlimit="10"/>
<path d="M212.331 373.479H47.6836V382.764H212.331V373.479Z" stroke="#777B7D" stroke-miterlimit="10"/>
<path d="M461.223 373.479H313.378V382.764H461.223V373.479Z" stroke="#777B7D" stroke-miterlimit="10"/>
<path d="M299.566 373.118C299.566 373.118 315.705 374.712 323.885 384.754C323.885 384.754 332.53 373.118 348.052 373.397C351.862 368.818 354.291 363.25 355.056 357.342C355.822 351.435 354.892 345.431 352.375 340.032C349.859 334.633 345.859 330.061 340.843 326.848C335.826 323.636 330 321.916 324.043 321.889C318.087 321.861 312.245 323.528 307.199 326.695C302.154 329.861 298.113 334.397 295.547 339.773C292.981 345.149 291.997 351.144 292.708 357.058C293.42 362.972 295.798 368.562 299.566 373.176V373.118Z" fill="#004FFF"/>
<path opacity="0.5" d="M299.566 373.118C299.566 373.118 315.705 374.712 323.885 384.754C323.885 384.754 332.53 373.118 348.052 373.397C351.862 368.818 354.291 363.25 355.056 357.342C355.822 351.435 354.892 345.431 352.375 340.032C349.859 334.633 345.859 330.061 340.843 326.848C335.826 323.636 330 321.916 324.043 321.889C318.087 321.861 312.245 323.528 307.199 326.695C302.154 329.861 298.113 334.397 295.547 339.773C292.981 345.149 291.997 351.144 292.708 357.058C293.42 362.972 295.798 368.562 299.566 373.176V373.118Z" fill="white"/>
<path d="M323.349 324.188L322.814 405.093H325.537L323.349 324.188Z" fill="#263238"/>
<path d="M324.175 381.671C324.175 381.671 329.621 371.862 339.43 368.871C339.43 368.871 329.074 371.315 323.896 379.762L324.175 381.671Z" fill="#263238"/>
<path d="M324.175 353.882C324.175 353.882 329.621 344.073 339.43 341.083C339.43 341.083 329.074 343.527 323.896 351.974L324.175 353.882Z" fill="#263238"/>
<path d="M324.175 367.777C324.175 367.777 329.621 357.967 339.43 354.977C339.43 354.977 329.074 357.421 323.896 365.868L324.175 367.777Z" fill="#263238"/>
<path d="M323.361 360.97C323.361 360.97 318.101 351.161 308.641 348.17C308.641 348.17 318.637 350.626 323.628 359.073L323.361 360.97Z" fill="#263238"/>
<path d="M323.361 374.583C323.361 374.583 318.101 364.774 308.641 361.784C308.641 361.784 318.637 364.239 323.628 372.675L323.361 374.583Z" fill="#263238"/>
<path d="M375.583 366.985C375.583 366.985 394.817 368.882 404.568 380.809C404.568 380.809 414.865 366.997 433.366 367.276C437.886 361.822 440.763 355.197 441.663 348.171C442.563 341.146 441.448 334.009 438.449 327.592C435.45 321.176 430.69 315.743 424.723 311.926C418.756 308.11 411.828 306.067 404.745 306.036C397.662 306.005 390.716 307.986 384.716 311.749C378.715 315.513 373.907 320.903 370.851 327.293C367.796 333.683 366.618 340.809 367.456 347.843C368.293 354.876 371.112 361.527 375.583 367.02V366.985Z" fill="#004FFF"/>
<path opacity="0.5" d="M375.583 366.985C375.583 366.985 394.817 368.882 404.568 380.809C404.568 380.809 414.865 366.997 433.366 367.276C437.886 361.822 440.763 355.197 441.663 348.171C442.563 341.146 441.448 334.009 438.449 327.592C435.45 321.176 430.69 315.743 424.723 311.926C418.756 308.11 411.828 306.067 404.745 306.036C397.662 306.005 390.716 307.986 384.716 311.749C378.715 315.513 373.907 320.903 370.851 327.293C367.796 333.683 366.618 340.809 367.456 347.843C368.293 354.876 371.112 361.527 375.583 367.02V366.985Z" fill="white"/>
<path d="M403.928 308.678L403.276 405.093H406.534L403.928 308.678Z" fill="#263238"/>
<path d="M404.905 377.179C404.905 377.179 411.398 365.485 423.08 361.913C423.08 361.913 410.746 364.845 404.579 374.898L404.905 377.179Z" fill="#263238"/>
<path d="M404.905 344.062C404.905 344.062 411.398 332.368 423.08 328.808C423.08 328.808 410.746 331.728 404.579 341.793L404.905 344.062Z" fill="#263238"/>
<path d="M404.905 360.621C404.905 360.621 411.398 348.985 423.08 345.355C423.08 345.355 410.746 348.287 404.579 358.352L404.905 360.621Z" fill="#263238"/>
<path d="M403.939 352.498C403.939 352.498 397.679 340.862 386.404 337.244C386.404 337.244 398.308 340.164 404.254 350.229L403.939 352.498Z" fill="#263238"/>
<path d="M403.939 368.731C403.939 368.731 397.679 357.095 386.404 353.476C386.404 353.476 398.308 356.397 404.254 366.462L403.939 368.731Z" fill="#263238"/>
<path d="M453.008 378.12C453.008 378.12 466.622 379.47 473.522 387.906C476.002 384.903 479.116 382.487 482.641 380.831C486.166 379.176 490.013 378.321 493.908 378.33C497.109 374.468 499.147 369.777 499.785 364.803C500.423 359.828 499.635 354.775 497.512 350.231C495.389 345.687 492.019 341.839 487.794 339.136C483.57 336.434 478.664 334.986 473.649 334.964C468.633 334.941 463.715 336.343 459.466 339.008C455.217 341.672 451.812 345.488 449.648 350.013C447.484 354.537 446.649 359.584 447.242 364.564C447.835 369.544 449.83 374.253 452.996 378.143L453.008 378.12Z" fill="#004FFF"/>
<path opacity="0.5" d="M453.008 378.12C453.008 378.12 466.622 379.47 473.522 387.906C476.002 384.903 479.116 382.487 482.641 380.831C486.166 379.176 490.013 378.321 493.908 378.33C497.109 374.468 499.147 369.777 499.785 364.803C500.423 359.828 499.635 354.775 497.512 350.231C495.389 345.687 492.019 341.839 487.794 339.136C483.57 336.434 478.664 334.986 473.649 334.964C468.633 334.941 463.715 336.343 459.466 339.008C455.217 341.672 451.812 345.488 449.648 350.013C447.484 354.537 446.649 359.584 447.242 364.564C447.835 369.544 449.83 374.253 452.996 378.143L453.008 378.12Z" fill="white"/>
<path d="M473.068 336.848L472.614 405.093H474.906L473.068 336.848Z" fill="#263238"/>
<path d="M473.766 385.335C473.766 385.335 478.35 377.062 486.565 374.537C486.565 374.537 477.838 376.597 473.475 383.729L473.766 385.335Z" fill="#263238"/>
<path d="M473.766 361.888C473.766 361.888 478.35 353.615 486.565 351.09C486.565 351.09 477.838 353.162 473.475 360.283L473.766 361.888Z" fill="#263238"/>
<path d="M473.766 373.618C473.766 373.618 478.35 365.345 486.565 362.809C486.565 362.809 477.838 364.88 473.475 372.001L473.766 373.618Z" fill="#263238"/>
<path d="M473.079 367.87C473.079 367.87 468.646 359.597 460.664 357.072C460.664 357.072 469.088 359.131 473.301 366.264L473.079 367.87Z" fill="#263238"/>
<path d="M473.079 379.354C473.079 379.354 468.646 371.081 460.664 368.556C460.664 368.556 469.088 370.627 473.301 377.748L473.079 379.354Z" fill="#263238"/>
<path d="M18.5241 373.118C18.5241 373.118 34.663 374.712 42.8431 384.754C42.8431 384.754 51.4885 373.118 67.0108 373.397C70.8203 368.818 73.2495 363.25 74.0149 357.342C74.7804 351.435 73.8506 345.431 71.334 340.032C68.8173 334.633 64.8176 330.061 59.8012 326.848C54.7849 323.636 48.9586 321.916 43.0018 321.889C37.045 321.861 31.2033 323.528 26.1578 326.695C21.1123 329.861 17.0711 334.397 14.5053 339.773C11.9396 345.149 10.9551 351.144 11.6666 357.058C12.3782 362.972 14.7564 368.562 18.5241 373.176V373.118Z" fill="#004FFF"/>
<path opacity="0.5" d="M18.5241 373.118C18.5241 373.118 34.663 374.712 42.8431 384.754C42.8431 384.754 51.4885 373.118 67.0108 373.397C70.8203 368.818 73.2495 363.25 74.0149 357.342C74.7804 351.435 73.8506 345.431 71.334 340.032C68.8173 334.633 64.8176 330.061 59.8012 326.848C54.7849 323.636 48.9586 321.916 43.0018 321.889C37.045 321.861 31.2033 323.528 26.1578 326.695C21.1123 329.861 17.0711 334.397 14.5053 339.773C11.9396 345.149 10.9551 351.144 11.6666 357.058C12.3782 362.972 14.7564 368.562 18.5241 373.176V373.118Z" fill="white"/>
<path d="M42.3079 324.188L41.761 405.093H44.4838L42.3079 324.188Z" fill="#263238"/>
<path d="M43.1226 381.671C43.1226 381.671 48.5798 371.862 58.3772 368.871C58.3772 368.871 48.0329 371.315 42.855 379.762L43.1226 381.671Z" fill="#263238"/>
<path d="M43.1226 353.882C43.1226 353.882 48.5798 344.073 58.3772 341.083C58.3772 341.083 48.0329 343.527 42.855 351.974L43.1226 353.882Z" fill="#263238"/>
<path d="M43.1226 367.777C43.1226 367.777 48.5798 357.967 58.3772 354.977C58.3772 354.977 48.0329 357.421 42.855 365.868L43.1226 367.777Z" fill="#263238"/>
<path d="M42.3197 360.97C42.3197 360.97 37.0603 351.161 27.6003 348.17C27.6003 348.17 37.5839 350.626 42.5873 359.073L42.3197 360.97Z" fill="#263238"/>
<path d="M42.3197 374.583C42.3197 374.583 37.0603 364.774 27.6003 361.784C27.6003 361.784 37.5839 364.239 42.5873 372.675L42.3197 374.583Z" fill="#263238"/>
<path d="M94.5415 366.985C94.5415 366.985 113.776 368.882 123.526 380.809C123.526 380.809 133.824 366.997 152.325 367.276C156.843 361.822 159.718 355.196 160.617 348.171C161.515 341.147 160.4 334.011 157.4 327.595C154.401 321.179 149.641 315.748 143.674 311.932C137.708 308.117 130.78 306.074 123.698 306.043C116.616 306.011 109.671 307.992 103.671 311.755C97.6705 315.517 92.8626 320.907 89.8065 327.296C86.7504 333.685 85.5718 340.81 86.408 347.843C87.2442 354.875 90.0608 361.526 94.5298 367.02L94.5415 366.985Z" fill="#004FFF"/>
<path opacity="0.5" d="M94.5415 366.985C94.5415 366.985 113.776 368.882 123.526 380.809C123.526 380.809 133.824 366.997 152.325 367.276C156.843 361.822 159.718 355.196 160.617 348.171C161.515 341.147 160.4 334.011 157.4 327.595C154.401 321.179 149.641 315.748 143.674 311.932C137.708 308.117 130.78 306.074 123.698 306.043C116.616 306.011 109.671 307.992 103.671 311.755C97.6705 315.517 92.8626 320.907 89.8065 327.296C86.7504 333.685 85.5718 340.81 86.408 347.843C87.2442 354.875 90.0608 361.526 94.5298 367.02L94.5415 366.985Z" fill="white"/>
<path d="M122.886 308.678L122.235 405.093H125.481L122.886 308.678Z" fill="#263238"/>
<path d="M123.863 377.179C123.863 377.179 130.356 365.485 142.039 361.913C142.039 361.913 129.705 364.845 123.538 374.898L123.863 377.179Z" fill="#263238"/>
<path d="M123.863 344.062C123.863 344.062 130.356 332.368 142.039 328.808C142.039 328.808 129.705 331.728 123.538 341.793L123.863 344.062Z" fill="#263238"/>
<path d="M123.863 360.621C123.863 360.621 130.356 348.985 142.039 345.355C142.039 345.355 129.705 348.287 123.538 358.352L123.863 360.621Z" fill="#263238"/>
<path d="M122.898 352.498C122.898 352.498 116.638 340.862 105.351 337.244C105.351 337.244 117.255 340.164 123.212 350.229L122.898 352.498Z" fill="#263238"/>
<path d="M122.898 368.731C122.898 368.731 116.638 357.095 105.351 353.476C105.351 353.476 117.255 356.397 123.212 366.462L122.898 368.731Z" fill="#263238"/>
<path d="M171.966 378.12C171.966 378.12 185.58 379.47 192.48 387.906C194.959 384.902 198.073 382.485 201.598 380.829C205.123 379.173 208.972 378.32 212.866 378.33C216.067 374.468 218.105 369.777 218.744 364.803C219.382 359.828 218.593 354.775 216.471 350.231C214.348 345.687 210.978 341.839 206.753 339.136C202.528 336.434 197.623 334.986 192.607 334.964C187.592 334.941 182.674 336.343 178.424 339.008C174.175 341.672 170.77 345.488 168.606 350.013C166.442 354.537 165.608 359.584 166.201 364.564C166.794 369.544 168.789 374.253 171.955 378.143L171.966 378.12Z" fill="#004FFF"/>
<path opacity="0.5" d="M171.966 378.12C171.966 378.12 185.58 379.47 192.48 387.906C194.959 384.902 198.073 382.485 201.598 380.829C205.123 379.173 208.972 378.32 212.866 378.33C216.067 374.468 218.105 369.777 218.744 364.803C219.382 359.828 218.593 354.775 216.471 350.231C214.348 345.687 210.978 341.839 206.753 339.136C202.528 336.434 197.623 334.986 192.607 334.964C187.592 334.941 182.674 336.343 178.424 339.008C174.175 341.672 170.77 345.488 168.606 350.013C166.442 354.537 165.608 359.584 166.201 364.564C166.794 369.544 168.789 374.253 171.955 378.143L171.966 378.12Z" fill="white"/>
<path d="M192.027 336.848L191.561 405.093H193.865L192.027 336.848Z" fill="#263238"/>
<path d="M192.713 385.335C192.713 385.335 197.309 377.062 205.582 374.537C205.582 374.537 196.855 376.597 192.492 383.729L192.713 385.335Z" fill="#263238"/>
<path d="M192.713 361.888C192.713 361.888 197.309 353.615 205.582 351.09C205.582 351.09 196.855 353.162 192.492 360.283L192.713 361.888Z" fill="#263238"/>
<path d="M192.713 373.618C192.713 373.618 197.309 365.345 205.582 362.809C205.582 362.809 196.855 364.88 192.492 372.001L192.713 373.618Z" fill="#263238"/>
<path d="M192.038 367.87C192.038 367.87 187.605 359.597 179.623 357.072C179.623 357.072 188.047 359.131 192.259 366.264L192.038 367.87Z" fill="#263238"/>
<path d="M192.038 379.354C192.038 379.354 187.605 371.081 179.623 368.556C179.623 368.556 188.047 370.627 192.259 377.748L192.038 379.354Z" fill="#263238"/>
<path d="M353.555 404.255C370.302 400.349 380.712 383.605 376.805 366.858C372.899 350.111 356.156 339.701 339.408 343.608C322.661 347.514 312.252 364.257 316.158 381.005C320.064 397.752 336.808 408.162 353.555 404.255Z" fill="#263238" stroke="#777B7D" stroke-miterlimit="10"/>
<path d="M150.422 395.953C162.582 383.793 162.582 364.078 150.422 351.918C138.262 339.758 118.547 339.758 106.387 351.918C94.2265 364.078 94.2265 383.793 106.387 395.953C118.547 408.113 138.262 408.113 150.422 395.953Z" fill="#263238" stroke="#777B7D" stroke-miterlimit="10"/>
<path d="M325.479 314.927C325.479 314.927 317.217 309.76 279.494 297.357C241.77 284.953 217.475 280.81 180.275 281.858C143.075 282.905 92.9357 296.845 83.6387 300.475C74.3416 304.105 70.1992 305.129 72.2704 307.701C74.3416 310.272 85.6982 319.593 84.1507 323.724C82.6031 327.854 57.3067 350.626 55.7242 354.198C54.1417 357.77 60.9022 370.22 61.9261 373.327C62.9501 376.434 68.6517 377.458 73.2944 377.982C77.9371 378.505 408.687 377.982 408.687 377.982C408.687 377.982 413.341 372.303 412.306 365.066C411.27 357.828 410.165 348.287 405.499 342.178C401.729 337.221 397.831 331.997 388.045 330.961C381.843 330.298 327.038 315.45 325.479 314.927Z" fill="#004FFF"/>
<path d="M325.479 314.927C325.479 314.927 317.217 309.76 279.494 297.357C241.77 284.953 217.475 280.81 180.275 281.858C143.075 282.905 92.9357 296.845 83.6387 300.475C74.3416 304.105 70.1992 305.129 72.2704 307.701C74.3416 310.272 85.6982 319.593 84.1507 323.724C82.6031 327.854 57.3067 350.626 55.7242 354.198C54.1417 357.77 60.9022 370.22 61.9261 373.327C62.9501 376.434 68.6517 377.458 73.2944 377.982C77.9371 378.505 408.687 377.982 408.687 377.982C408.687 377.982 413.341 372.303 412.306 365.066C411.27 357.828 410.165 348.287 405.499 342.178C401.729 337.221 397.831 331.997 388.045 330.961C381.843 330.298 327.038 315.45 325.479 314.927Z" fill="#004FFF"/>
<path opacity="0.15" d="M325.479 314.927C325.479 314.927 317.217 309.76 279.494 297.357C241.77 284.953 217.475 280.81 180.275 281.858C143.075 282.905 92.9357 296.845 83.6387 300.475C74.3416 304.105 70.1992 305.129 72.2704 307.701C74.3416 310.272 85.6982 319.593 84.1507 323.724C82.6031 327.854 57.3067 350.626 55.7242 354.198C54.1417 357.77 60.9022 370.22 61.9261 373.327C62.9501 376.434 68.6517 377.458 73.2944 377.982C77.9371 378.505 408.687 377.982 408.687 377.982C408.687 377.982 413.341 372.303 412.306 365.066C411.27 357.828 410.165 348.287 405.499 342.178C401.729 337.221 397.831 331.997 388.045 330.961C381.843 330.298 327.038 315.45 325.479 314.927Z" fill="black"/>
<path d="M325.479 314.927C325.479 314.927 317.217 309.76 279.494 297.357C241.77 284.953 217.475 280.81 180.275 281.858C143.075 282.905 92.9357 296.845 83.6387 300.475C74.3416 304.105 70.1992 305.129 72.2704 307.701C74.3416 310.272 85.6982 319.593 84.1507 323.724C82.6031 327.854 57.3067 350.626 55.7242 354.198C54.1417 357.77 60.9022 370.22 61.9261 373.327C62.9501 376.434 68.6517 377.458 73.2944 377.982C77.9371 378.505 408.687 377.982 408.687 377.982C408.687 377.982 413.341 372.303 412.306 365.066C411.27 357.828 410.165 348.287 405.499 342.178C401.729 337.221 397.831 331.997 388.045 330.961C381.843 330.298 327.038 315.45 325.479 314.927Z" stroke="#777B7D" stroke-miterlimit="10"/>
<path d="M408.687 351.102H389.046V356.268H408.687V351.102Z" fill="#263238" stroke="#777B7D" stroke-miterlimit="10"/>
<path d="M379.62 342.166H382.75C384.753 342.162 386.71 342.759 388.369 343.879C390.029 344.999 391.314 346.591 392.059 348.449L395.212 356.269H384.973L379.62 342.166Z" fill="white" stroke="#777B7D" stroke-miterlimit="10"/>
<path d="M408.443 347.449C408.326 347.775 408.222 348.101 408.128 348.45L406.022 356.27H410.933C410.39 353.256 409.556 350.302 408.443 347.449V347.449Z" fill="white" stroke="#777B7D" stroke-miterlimit="10"/>
<path d="M325.479 314.927C325.479 314.927 317.217 309.761 279.494 297.357C270.872 294.529 262.971 292.132 255.442 290.119H228.843L223.164 291.678L299.647 314.95L325.479 314.927Z" fill="#263238" stroke="#777B7D" stroke-miterlimit="10"/>
<path d="M46.9509 306.642V341.55C46.9509 341.55 68.198 324.096 65.5683 319.127C62.9386 314.159 46.9509 306.642 46.9509 306.642Z" fill="#8F8F8F" stroke="#777B7D" stroke-miterlimit="10"/>
<path d="M299.647 314.927C299.647 314.927 291.374 309.76 253.65 297.357C215.927 284.953 191.643 280.81 154.431 281.858C117.22 282.905 67.0923 296.845 57.8534 300.475C48.6145 304.105 44.4139 305.129 46.4851 307.701C48.5563 310.272 59.9246 319.593 58.3654 323.724C56.8061 327.854 31.4399 350.626 29.8924 354.198C28.3448 357.77 35.0587 370.22 36.0943 373.327C37.1299 376.434 42.8082 377.458 47.4625 377.982C52.1169 378.505 382.843 377.982 382.843 377.982C382.843 377.982 387.498 372.303 386.462 365.066C385.427 357.828 384.275 348.298 379.62 342.166C375.85 337.21 371.941 331.985 362.166 330.949C356.011 330.298 301.194 315.45 299.647 314.927Z" fill="#004FFF"/>
<path opacity="0.15" d="M379.62 342.166C375.85 337.209 371.941 331.985 362.167 330.949C360.538 330.775 355.499 329.611 348.948 327.982C317.718 327.668 300.322 340.293 253.662 344.575C192.9 350.137 150.859 334.952 100.22 328.867C79.1006 326.342 62.0541 329.448 49.3361 333.917C41.3655 341.969 30.8583 351.917 29.8809 354.198C28.3333 357.817 35.0472 370.22 36.0828 373.327C37.1184 376.434 42.7967 377.458 47.4511 377.982C52.1054 378.505 382.832 377.982 382.832 377.982C382.832 377.982 387.486 372.303 386.451 365.066C385.415 357.828 384.275 348.298 379.62 342.166Z" fill="black"/>
<path d="M299.647 314.927C299.647 314.927 291.374 309.76 253.65 297.357C215.927 284.953 191.643 280.81 154.431 281.858C117.22 282.905 67.0923 296.845 57.8534 300.475C48.6145 304.105 44.4139 305.129 46.4851 307.701C48.5563 310.272 59.9246 319.593 58.3654 323.724C56.8061 327.854 31.4399 350.626 29.8924 354.198C28.3448 357.77 35.0587 370.22 36.0943 373.327C37.1299 376.434 42.8082 377.458 47.4625 377.982C52.1169 378.505 382.843 377.982 382.843 377.982C382.843 377.982 387.498 372.303 386.462 365.066C385.427 357.828 384.275 348.298 379.62 342.166C375.85 337.21 371.941 331.985 362.166 330.949C356.011 330.298 301.194 315.45 299.647 314.927Z" stroke="#777B7D" stroke-miterlimit="10"/>
<path d="M104.211 295.867L124.888 317.708H276.876V312.751C276.876 312.751 245.726 300.522 212.878 294.134C180.03 287.746 171.827 288.316 157.026 288.595C142.225 288.874 104.211 295.867 104.211 295.867Z" fill="#8F8F8F"/>
<path d="M178.32 308.155C158.973 303.737 138.734 305.408 120.373 312.937L124.888 317.708H276.876V312.751C276.876 312.751 271.837 310.773 263.669 307.992C246.576 314.555 212.669 315.718 178.32 308.155Z" fill="#263238" stroke="#777B7D" stroke-miterlimit="10"/>
<path d="M104.211 295.867L124.888 317.708H276.876V312.751C276.876 312.751 245.726 300.522 212.878 294.134C180.03 287.746 171.827 288.316 157.026 288.595C142.225 288.874 104.211 295.867 104.211 295.867Z" stroke="#263238" stroke-width="4" stroke-miterlimit="10"/>
<path d="M172.932 320.617V368.079" stroke="#777B7D" stroke-miterlimit="10"/>
<path d="M100.27 404.287C117.021 400.399 127.448 383.666 123.559 366.915C119.67 350.164 102.938 339.737 86.1869 343.625C69.4356 347.514 59.0085 364.247 62.8975 380.998C66.7864 397.749 83.5186 408.176 100.27 404.287Z" fill="#263238" stroke="#777B7D" stroke-miterlimit="10"/>
<path d="M93.2616 351.463C88.8162 351.463 84.4707 352.782 80.7749 355.252C77.0792 357.722 74.1993 361.234 72.4997 365.341C70.8002 369.449 70.3572 373.969 71.227 378.328C72.0968 382.688 74.2403 386.691 77.3861 389.832C80.5319 392.973 84.5387 395.11 88.8996 395.973C93.2604 396.836 97.7792 396.386 101.884 394.68C105.989 392.974 109.496 390.089 111.961 386.389C114.425 382.69 115.737 378.342 115.73 373.897C115.718 367.945 113.346 362.24 109.134 358.035C104.922 353.829 99.2137 351.466 93.2616 351.463V351.463ZM108.388 369.429L95.2979 371.884L99.0097 359.259C101.236 360.137 103.235 361.508 104.855 363.27C106.475 365.031 107.675 367.137 108.365 369.429H108.388ZM94.4252 372.803V375.06H92.1795V372.803H94.4252ZM88.805 358.84L91.2602 371.93L78.6237 368.207C79.4901 365.984 80.849 363.986 82.5983 362.364C84.3476 360.742 86.4418 359.537 88.7236 358.84H88.805ZM78.2048 378.435L91.2951 375.98L87.56 388.605C85.323 387.738 83.3139 386.371 81.6863 384.608C80.0588 382.845 78.856 380.734 78.1699 378.435H78.2048ZM97.7996 389.023L95.3444 375.945L107.946 379.715C107.064 381.936 105.689 383.927 103.926 385.54C102.162 387.152 100.056 388.343 97.7647 389.023H97.7996Z" fill="white" stroke="#777B7D" stroke-miterlimit="10"/>
<path d="M100.232 373.898C100.232 372.517 99.8221 371.167 99.055 370.019C98.2879 368.871 97.1975 367.976 95.9218 367.447C94.6461 366.919 93.2423 366.781 91.8881 367.05C90.5338 367.32 89.2898 367.984 88.3134 368.961C87.337 369.937 86.6721 371.181 86.4027 372.536C86.1333 373.89 86.2716 375.294 86.8 376.569C87.3284 377.845 88.2233 378.935 89.3714 379.702C90.5195 380.47 91.8693 380.879 93.2501 380.879C95.1017 380.879 96.8775 380.144 98.1868 378.834C99.4961 377.525 100.232 375.749 100.232 373.898V373.898Z" fill="white" stroke="#777B7D" stroke-miterlimit="10"/>
<path d="M334.398 395.952C346.558 383.792 346.558 364.076 334.398 351.916C322.238 339.757 302.523 339.756 290.363 351.916C278.203 364.076 278.203 383.792 290.363 395.952C302.523 408.112 322.238 408.112 334.398 395.952Z" fill="#263238" stroke="#777B7D" stroke-miterlimit="10"/>
<path d="M312.377 351.463C307.931 351.463 303.586 352.782 299.89 355.252C296.194 357.722 293.315 361.234 291.615 365.341C289.915 369.449 289.472 373.969 290.342 378.328C291.212 382.688 293.355 386.691 296.501 389.832C299.647 392.973 303.654 395.11 308.015 395.973C312.376 396.836 316.894 396.386 320.999 394.68C325.105 392.974 328.611 390.089 331.076 386.389C333.541 382.69 334.853 378.342 334.846 373.897C334.833 367.945 332.461 362.24 328.249 358.035C324.037 353.829 318.329 351.466 312.377 351.463V351.463ZM327.503 369.429L314.425 371.884L318.137 359.259C320.36 360.138 322.355 361.509 323.972 363.271C325.588 365.033 326.784 367.138 327.469 369.429H327.503ZM313.54 372.803V375.06H311.283V372.803H313.54ZM307.909 358.84L310.364 371.93L297.739 368.207C298.607 365.979 299.971 363.979 301.727 362.356C303.483 360.733 305.585 359.531 307.874 358.84H307.909ZM297.32 378.435L310.41 375.98L306.687 388.605C304.448 387.738 302.437 386.372 300.808 384.609C299.178 382.846 297.973 380.735 297.285 378.435H297.32ZM316.915 389.023L314.46 375.945L327.05 379.715C326.17 381.935 324.798 383.927 323.036 385.54C321.274 387.152 319.169 388.343 316.88 389.023H316.915Z" fill="white" stroke="#777B7D" stroke-miterlimit="10"/>
<path d="M319.347 373.898C319.347 372.517 318.937 371.167 318.17 370.019C317.403 368.871 316.312 367.976 315.037 367.447C313.761 366.919 312.357 366.781 311.003 367.05C309.649 367.32 308.405 367.984 307.428 368.961C306.452 369.937 305.787 371.181 305.518 372.536C305.248 373.89 305.386 375.294 305.915 376.569C306.443 377.845 307.338 378.935 308.486 379.702C309.634 380.47 310.984 380.879 312.365 380.879C314.217 380.879 315.992 380.144 317.302 378.834C318.611 377.525 319.347 375.749 319.347 373.898Z" fill="white" stroke="#777B7D" stroke-miterlimit="10"/>
<path d="M379.62 342.167C379.62 342.167 356.442 341.003 355.406 342.167C354.371 343.33 363.156 352.639 366.262 354.722C368.718 356.362 380.284 356.048 384.961 355.885C384.019 350.882 382.495 345.89 379.62 342.167Z" fill="white" stroke="#777B7D" stroke-miterlimit="10"/>
<path d="M176.737 288.746C175.213 288.642 173.782 288.572 172.386 288.525L168.488 317.615H178.82L176.737 288.746Z" fill="#263238" stroke="#777B7D" stroke-miterlimit="10"/>
<path d="M215.206 395.889C213.356 397.079 211.41 398.11 209.388 398.973C206.898 399.927 205.245 400.509 205.722 402.056C206.2 403.604 208.911 404.895 212.355 405.605C215.799 406.315 221.943 404.779 223.607 404.302C225.271 403.825 225.503 401.102 224.317 399.566C223.13 398.03 217.219 395.063 215.206 395.889Z" fill="#263238" stroke="#263238" stroke-linecap="round" stroke-linejoin="round"/>
<path d="M216.276 404.778C213.426 404.778 208.69 403.708 208.69 402.649C208.69 401.59 209.853 400.752 208.457 400.392C207.061 400.031 206.13 401.974 205.897 402.428C206.665 403.801 209.213 404.953 212.367 405.604C215.857 406.314 221.955 404.778 223.619 404.301C223.917 404.2 224.187 404.027 224.404 403.798C224.621 403.569 224.778 403.29 224.864 402.986C222.11 404.019 219.214 404.624 216.276 404.778V404.778Z" fill="white" stroke="#263238" stroke-linecap="round" stroke-linejoin="round"/>
<path d="M229.774 319.836L230.484 322.164C230.042 322.519 229.685 322.969 229.439 323.481C229.194 323.992 229.065 324.552 229.064 325.12C229.327 326.426 230.039 327.6 231.077 328.436" stroke="#263238" stroke-linecap="round" stroke-linejoin="round"/>
<path d="M222.536 315.217C221.817 317.15 221.226 319.129 220.768 321.14V324.34C220.768 324.933 218.44 337.488 217.917 345.191C217.393 352.894 217.091 361.889 216.497 363.913C215.904 365.938 216.614 366.985 216.73 369.836C216.846 372.687 216.974 387.011 216.974 387.011C216.974 387.011 216.381 390.804 216.265 391.746C216.148 392.689 214.961 393.05 214.601 393.643C214.212 394.603 213.897 395.591 213.658 396.599C215.501 397.099 217.176 398.083 218.51 399.449C220.174 401.462 224.666 403.952 225.259 403.824C225.852 403.696 226.213 402.056 227.156 399.798C228.098 397.541 227.993 396.366 228.459 395.423C228.924 394.481 229.623 392.933 230.716 385.824C231.81 378.714 232.729 368.172 233.323 366.753C233.916 365.333 236.988 360.004 236.988 360.004C239.665 354.844 241.963 349.497 243.865 344.004C245.602 338.91 246.909 333.679 247.774 328.366C248.328 324.715 248.681 321.036 248.833 317.347V316.183C248.833 316.183 244.458 317.835 236.639 317.009C228.82 316.183 222.536 315.217 222.536 315.217Z" fill="white" stroke="#263238" stroke-linecap="round" stroke-linejoin="round"/>
<path d="M238.896 322.094C238.896 322.094 233.567 324.933 232.741 326.352C231.915 327.772 230.844 333.823 228.471 341.281C226.097 348.74 223.967 354.43 221.954 360.713C220.679 364.311 219.846 368.05 219.476 371.849C218.755 376.503 217.149 388.791 217.149 388.791" stroke="#263238" stroke-linecap="round" stroke-linejoin="round"/>
<path d="M224.863 401.695C224.863 401.695 227.47 400.752 227.47 395.423C227.47 390.094 226.516 386.3 227.47 381.204C228.424 376.107 230.786 367.811 232.206 365.333C233.625 362.854 235.289 359.643 235.289 359.643" stroke="#263238" stroke-linecap="round" stroke-linejoin="round"/>
<path d="M233.928 357.862C233.928 357.862 238.07 360.713 238.897 359.643C240.174 357.373 241.245 354.994 242.096 352.533C243.167 349.81 243.632 348.507 243.632 348.507C243.632 348.507 244.796 348.391 244.936 347.343C245.075 346.296 245.296 344.26 245.296 344.26C244.02 344.222 242.75 344.066 241.503 343.795C239.257 343.317 238.42 343.434 237.954 344.504C237.58 345.228 237.261 345.979 237 346.75C236.29 348.647 233.509 355.046 233.451 355.989C233.393 356.931 233.218 357.153 233.928 357.862Z" fill="white" stroke="#263238" stroke-linecap="round" stroke-linejoin="round"/>
<path d="M243.632 348.508C242.004 348.413 240.383 348.215 238.78 347.914C237.477 347.565 238.186 345.901 238.186 345.901" fill="#004FFF"/>
<path d="M243.632 348.508C242.004 348.413 240.383 348.215 238.78 347.914C237.477 347.565 238.186 345.901 238.186 345.901" stroke="#263238" stroke-linecap="round" stroke-linejoin="round"/>
<path d="M241.98 343.772C241.98 343.772 245.063 333.824 245.471 331.799L245.948 329.786" stroke="#263238" stroke-linecap="round" stroke-linejoin="round"/>
<path d="M242.922 319.359C242.922 319.359 242.096 323.514 242.922 325.76C243.873 327.707 245.303 329.38 247.077 330.624" stroke="#263238" stroke-linecap="round" stroke-linejoin="round"/>
<path d="M225.748 321.14C225.748 321.14 231.915 322.921 235.581 321.617" stroke="#263238" stroke-linecap="round" stroke-linejoin="round"/>
<path d="M237 274.584C237 274.584 228.948 276.597 226.528 277.075C224.107 277.552 222.862 277.552 222.502 278.61C219.915 283.45 216.901 288.049 213.495 292.352C210.773 295.32 210.54 298.17 211.366 299.695C212.192 301.219 213.146 301.952 216.695 300.998C218.982 300.306 221.008 298.944 222.513 297.088C222.513 297.088 223.351 305.978 222.164 309.527C220.977 313.076 220.5 315.927 221.326 316.509C224.922 318.489 228.951 319.548 233.055 319.592C239.571 319.825 247.018 319.231 248.182 318.044C248.584 317.721 248.9 317.303 249.103 316.828C249.306 316.353 249.389 315.836 249.345 315.322C249.345 314.496 248.88 308.934 250.3 304.547C251.719 300.16 255.745 288.908 255.862 284.638C255.978 280.367 254.326 279.786 251.126 278.482C247.926 277.179 242.829 274.934 241.654 274.689C240.107 274.553 238.552 274.518 237 274.584V274.584Z" fill="#263238" stroke="#263238" stroke-linecap="round" stroke-linejoin="round"/>
<path d="M235.336 272.455C234.365 273.08 233.453 273.792 232.613 274.585C232.485 274.946 228.343 281.567 228.82 281.567C229.297 281.567 234.51 278.96 234.51 278.96C234.51 278.96 237.105 275.05 236.838 273.503C236.828 273.327 236.778 273.155 236.692 273.001C236.606 272.847 236.486 272.715 236.342 272.614C236.197 272.513 236.031 272.447 235.857 272.419C235.683 272.392 235.505 272.404 235.336 272.455V272.455Z" fill="white" stroke="#263238" stroke-linecap="round" stroke-linejoin="round"/>
<path d="M234.335 271.14C234.459 273.761 234.26 276.388 233.742 278.96C232.915 282.16 232.322 284.289 233.509 284.65C234.696 285.01 238.605 279.192 239.664 277.54C240.289 276.589 240.768 275.55 241.084 274.457L241.922 265.218C241.922 265.218 237.174 270.338 234.335 271.14Z" fill="white" stroke="#263238" stroke-linecap="round" stroke-linejoin="round"/>
<path d="M230.076 249.102C230.076 249.102 228.913 259.179 228.913 262.972C228.913 266.765 231.403 271.618 232.578 272.083C233.753 272.548 236.732 273.037 237.919 272.211C239.106 271.385 242.41 266.288 242.41 266.288C243.531 262.727 244.364 259.081 244.9 255.386C245.261 251.36 244.191 249.463 240.514 248.276C236.837 247.089 231.961 247.066 230.076 249.102Z" fill="white" stroke="#263238" stroke-linecap="round" stroke-linejoin="round"/>
<path d="M232.916 257.759C232.916 257.759 231.845 263.577 232.322 263.682C233.029 263.767 233.74 263.806 234.452 263.798" stroke="#263238" stroke-linecap="round" stroke-linejoin="round"/>
<path d="M232.799 265.811C232.799 265.811 235.999 266.521 237.652 264.985" stroke="#263238" stroke-linecap="round" stroke-linejoin="round"/>
<path d="M237.291 257.865C237.291 258.353 237 258.726 236.732 258.703C236.465 258.679 236.302 258.249 236.348 257.772C236.395 257.295 236.651 256.899 236.918 256.934C237.186 256.969 237.349 257.376 237.291 257.865Z" fill="#263238"/>
<path d="M232.322 257.387C232.322 257.875 232.02 258.248 231.764 258.224C231.508 258.201 231.333 257.782 231.38 257.293C231.426 256.805 231.682 256.432 231.938 256.456C232.194 256.479 232.369 256.898 232.322 257.387Z" fill="#263238"/>
<path d="M230.076 255.618C230.24 255.401 230.45 255.223 230.69 255.097C230.931 254.971 231.197 254.9 231.468 254.889C231.74 254.878 232.011 254.927 232.261 255.033C232.511 255.139 232.735 255.299 232.916 255.502" stroke="#263238" stroke-linecap="round" stroke-linejoin="round"/>
<path d="M235.161 255.385C235.161 255.385 237.419 253.605 238.652 255.502" stroke="#263238" stroke-linecap="round" stroke-linejoin="round"/>
<path d="M228.18 247.45C228.172 247.547 228.172 247.644 228.18 247.741C228.365 248.345 228.697 248.893 229.145 249.338C229.594 249.783 230.146 250.109 230.751 250.289C233.358 251.359 239.513 250.056 241.642 250.766C243.772 251.476 242.806 253.489 241.526 254.199C240.246 254.908 239.99 255.269 240.584 256.095C241.177 256.921 242.597 257.759 242.12 258.702C241.642 259.644 241.41 260.598 242.236 260.715C243.062 260.831 243.655 260.831 244.016 260.366C244.377 259.9 246.739 254.792 246.739 251.837C246.739 248.881 245.319 247.566 242.003 246.263C238.687 244.96 231.81 244.134 229.797 245.32C229.375 245.517 229.006 245.814 228.724 246.185C228.443 246.556 228.256 246.99 228.18 247.45V247.45Z" fill="#263238" stroke="#263238" stroke-linecap="round" stroke-linejoin="round"/>
<path d="M241.922 264.95C242.224 265.249 242.617 265.437 243.039 265.486C243.461 265.535 243.887 265.44 244.249 265.218C245.552 264.391 246.146 261.424 245.32 259.888C244.493 258.352 242.829 261.308 242.829 261.308" fill="white"/>
<path d="M241.922 264.95C242.224 265.249 242.617 265.437 243.039 265.486C243.461 265.535 243.887 265.44 244.249 265.218C245.552 264.391 246.146 261.424 245.32 259.888C244.493 258.352 242.829 261.308 242.829 261.308" stroke="#263238" stroke-linecap="round" stroke-linejoin="round"/>
<path d="M237 274.584C237 274.584 236.767 285.127 237.477 283.893C238.186 282.66 244.109 274.899 244.109 274.899L242.69 270.745L237 274.584Z" fill="white" stroke="#263238" stroke-linecap="round" stroke-linejoin="round"/>
<path d="M247.426 286.197L243.4 298.752L250.742 308.061C250.742 308.061 251.102 308.771 251.696 307.945C252.289 307.118 252.755 307.118 253.709 302.615C254.663 298.112 256.036 287.209 255.955 284.603C255.873 281.997 255.361 280.693 253.348 280.344" fill="#263238"/>
<path d="M247.426 286.197L243.4 298.752L250.742 308.061C250.742 308.061 251.102 308.771 251.696 307.945C252.289 307.118 252.755 307.118 253.709 302.615C254.663 298.112 256.036 287.209 255.955 284.603C255.873 281.997 255.361 280.693 253.348 280.344" stroke="#263238" stroke-linecap="round" stroke-linejoin="round"/>
<path d="M224.922 300.766C224.922 300.766 243.283 307.747 245.773 307.875C248.263 308.003 248.845 306.339 247.786 303.221C246.727 300.102 243.516 298.357 240.805 297.531C237.685 296.802 234.434 296.842 231.333 297.647C228.587 298.392 224.922 299.823 224.922 300.766Z" fill="white" stroke="#263238" stroke-linecap="round" stroke-linejoin="round"/>
<path d="M240.2 297.45C240.2 297.45 244.586 306.921 244.854 307.759C245.122 308.597 249.601 309.179 251.021 309.062C252.441 308.946 251.847 306.805 250.428 303.733C249.008 300.661 246.751 297.915 245.098 297.45C243.476 297.191 241.822 297.191 240.2 297.45Z" fill="white" stroke="#263238" stroke-linecap="round" stroke-linejoin="round"/>
<path d="M215.683 294.132C214.148 294.255 212.635 294.572 211.18 295.075C209.516 295.785 209.167 300.765 210.016 302.546C210.866 304.326 213.449 304.315 215.229 304.198C215.732 304.182 216.225 304.057 216.675 303.832C217.125 303.607 217.521 303.287 217.836 302.895L219.139 294.132H215.683Z" fill="#263238" stroke="#263238" stroke-linecap="round" stroke-linejoin="round"/>
<path d="M219.115 294.133C219.115 294.133 232.496 294.133 235.813 294.017C239.129 293.9 239.967 294.727 240.676 295.913C241.386 297.1 241.619 297.566 241.619 297.566C237.42 297.97 233.286 298.884 229.308 300.288C223.851 302.429 219.115 304.315 217.451 304.315C215.787 304.315 215.124 300.056 215.799 297.089C215.937 296.294 216.34 295.569 216.942 295.033C217.544 294.496 218.31 294.179 219.115 294.133V294.133Z" fill="white" stroke="#263238" stroke-linecap="round" stroke-linejoin="round"/>
<path d="M215.322 293.307C215.322 293.307 221.012 293.179 220.895 294.249C220.779 295.32 219.732 303.372 219.348 304.081C218.964 304.791 215.566 305.152 213.902 305.036C212.238 304.919 212.832 299.578 213.902 297.088C214.457 295.86 214.931 294.597 215.322 293.307V293.307Z" fill="white" stroke="#263238" stroke-linecap="round" stroke-linejoin="round"/>
<path d="M232.264 320.372C232.264 320.372 233.218 321.791 232.857 322.152C232.497 322.513 230.728 324.165 230.844 325.224C230.9 325.84 231.148 326.422 231.554 326.888" stroke="#263238" stroke-linecap="round" stroke-linejoin="round"/>
<path d="M16.4187 405.092H492.186" stroke="#263238" stroke-linecap="round" stroke-linejoin="round"/>
</svg>
