<svg width="24" height="24" viewBox="0 0 48 48" fill="none" xmlns="http://www.w3.org/2000/svg"><path fill="none" d="M0 0h48v48H0z"/><path fill-rule="evenodd" clip-rule="evenodd" d="M13.5 32a2.5 2.5 0 100-5 2.5 2.5 0 000 5zM34.5 32a2.5 2.5 0 100-5 2.5 2.5 0 000 5z" fill="#fcfcfc"/><path d="M7 37a3 3 0 01-3-3v-9.29a6 6 0 013.319-5.368l.682-.34 2.31-9.91A4 4 0 0114.205 6h19.688a4 4 0 013.904 3.128l2.205 9.873.68.34A6 6 0 0144 24.709V34a3 3 0 01-3 3h-1.997v1A4.001 4.001 0 0131 38v-1H17v1a4 4 0 11-8 0v-1H7z" stroke="#fcfcfc" stroke-width="3" stroke-linejoin="round"/><path d="M14 22h20l-1.652-7.434A2 2 0 0030.396 13H17.604a2 2 0 00-1.952 1.566L14 22z"  stroke="#fcfcfc" stroke-width="2" stroke-linejoin="round"/></svg>