<svg width="6" height="32" viewBox="0 0 6 32" fill="none" xmlns="http://www.w3.org/2000/svg">
<mask id="path-1-inside-1" fill="white">
<path fill-rule="evenodd" clip-rule="evenodd" d="M6 3C6 4.4865 4.91886 5.72048 3.5 5.95852V26.0415C4.91886 26.2795 6 27.5135 6 29C6 30.6569 4.65685 32 3 32C1.34315 32 0 30.6569 0 29C0 27.5135 1.08114 26.2795 2.5 26.0415V5.95852C1.08114 5.72048 0 4.4865 0 3C0 1.34315 1.34315 0 3 0C4.65685 0 6 1.34315 6 3Z"/>
</mask>
<path fill-rule="evenodd" clip-rule="evenodd" d="M6 3C6 4.4865 4.91886 5.72048 3.5 5.95852V26.0415C4.91886 26.2795 6 27.5135 6 29C6 30.6569 4.65685 32 3 32C1.34315 32 0 30.6569 0 29C0 27.5135 1.08114 26.2795 2.5 26.0415V5.95852C1.08114 5.72048 0 4.4865 0 3C0 1.34315 1.34315 0 3 0C4.65685 0 6 1.34315 6 3Z" fill="white"/>
<path d="M3.5 5.95852L3.36764 5.16955L2.7 5.28156V5.95852H3.5ZM3.5 26.0415H2.7V26.7184L3.36764 26.8305L3.5 26.0415ZM2.5 26.0415L2.63236 26.8305L3.3 26.7184V26.0415H2.5ZM2.5 5.95852H3.3V5.28156L2.63236 5.16955L2.5 5.95852ZM3.63236 6.74749C5.43019 6.44588 6.8 4.88369 6.8 3H5.2C5.2 4.0893 4.40752 4.99509 3.36764 5.16955L3.63236 6.74749ZM4.3 26.0415V5.95852H2.7V26.0415H4.3ZM3.36764 26.8305C4.40752 27.0049 5.2 27.9107 5.2 29H6.8C6.8 27.1163 5.43019 25.5541 3.63236 25.2525L3.36764 26.8305ZM5.2 29C5.2 30.215 4.21503 31.2 3 31.2V32.8C5.09868 32.8 6.8 31.0987 6.8 29H5.2ZM3 31.2C1.78497 31.2 0.8 30.215 0.8 29H-0.8C-0.8 31.0987 0.901318 32.8 3 32.8V31.2ZM0.8 29C0.8 27.9107 1.59248 27.0049 2.63236 26.8305L2.36764 25.2525C0.56981 25.5541 -0.8 27.1163 -0.8 29H0.8ZM1.7 5.95852V26.0415H3.3V5.95852H1.7ZM-0.8 3C-0.8 4.88369 0.56981 6.44588 2.36764 6.74749L2.63236 5.16955C1.59248 4.99509 0.8 4.0893 0.8 3H-0.8ZM3 -0.8C0.901318 -0.8 -0.8 0.901318 -0.8 3H0.8C0.8 1.78497 1.78497 0.8 3 0.8V-0.8ZM6.8 3C6.8 0.901318 5.09868 -0.8 3 -0.8V0.8C4.21503 0.8 5.2 1.78497 5.2 3H6.8Z" fill="#054752" mask="url(#path-1-inside-1)"/>
</svg>
